  <svg xmlns="http://www.w3.org/2000/svg" xmlns:xlink="http://www.w3.org/1999/xlink" width="180.875" height="73.598" viewBox="0 0 221.875 73.598">
                        <defs>
                            <clipPath id="clip-path">
                                <rect id="Rectangle_14" data-name="Rectangle 14" width="62.8" height="63" rx="5" transform="translate(-0.231 10.598)" fill="#fff" stroke="#707070" stroke-width="1"></rect>
                            </clipPath>
                        </defs>
                        <g id="logo" transform="translate(-100 -160.25)">
                            <g id="Group_219" data-name="Group 219" transform="translate(1.532 -75.524)">
                                <g id="Group_98" data-name="Group 98" transform="translate(98.699 235.774)">
                                    <g id="Group_97" data-name="Group 97" transform="translate(12.75 46.828)">
                                        <path id="Path_706" data-name="Path 706" d="M132.133,353.831v.661h4.574v1.271h-4.574V357.1a.655.655,0,0,0,.651.65h5.194v1.271h-5.194a1.917,1.917,0,0,1-1.911-1.921v-3.273a1.918,1.918,0,0,1,1.911-1.921h5.194v1.271h-5.194A.655.655,0,0,0,132.133,353.831Z" transform="translate(-130.65 -351.91)" fill="#273353"></path>
                                        <path id="Path_707" data-name="Path 707" d="M158.131,356.759a2.269,2.269,0,0,1-2.267,2.266h-4.849V351.91H155.5a1.926,1.926,0,0,1,1.921,1.921,1.884,1.884,0,0,1-.3,1.037A2.267,2.267,0,0,1,158.131,356.759Zm-5.845-2.277h3.223a.651.651,0,0,0,0-1.3h-3.223Zm3.578,3.263a1,1,0,1,0,0-1.992h-3.578v2h3.578Z" transform="translate(-142.67 -351.91)" fill="#273353"></path>
                                        <path id="Path_708" data-name="Path 708" d="M170.552,360.92v-1.271h4.818v1.271Z" transform="translate(-154.33 -356.528)" fill="#273353"></path>
                                        <path id="Path_709" data-name="Path 709" d="M192.127,354.11a2.112,2.112,0,0,0,0,2.927,2.091,2.091,0,0,1-2.094,2.094h-5.011V357.86h5.011a.837.837,0,0,0,.833-.833.828.828,0,0,0-.783-.833H186.3v-1.271h3.781a.834.834,0,0,0-.041-1.667h-5.011v-1.271h5.011a2.091,2.091,0,0,1,2.094,2.094Z" transform="translate(-162.965 -351.955)" fill="#273353"></path>
                                        <path id="Path_710" data-name="Path 710" d="M134.453,376.877v2.066a2.066,2.066,0,1,1-4.133,0v-2.066h.738v2.066a1.328,1.328,0,1,0,2.657,0v-2.066Z" transform="translate(-130.32 -366.81)" fill="#273353"></path>
                                        <path id="Path_711" data-name="Path 711" d="M146.166,376.883v4.133l-.738-.567-2.657-2.049v2.616h-.738v-4.121l.738.567,2.657,2.049v-2.633Z" transform="translate(-137.31 -366.81)" fill="#273353"></path>
                                        <path id="Path_712" data-name="Path 712" d="M156.924,378.022V378a.38.38,0,0,0-.378-.378H154.87a.38.38,0,0,0-.378.378v.023a.38.38,0,0,0,.378.378h1.488a1.3,1.3,0,0,1,.962.425c.018.017.03.035.047.053a1.3,1.3,0,0,1-1.009,2.131h-1.293a1.305,1.305,0,0,1-1.3-1.3h.738a.567.567,0,0,0,.567.567h1.293a.567.567,0,1,0,0-1.133H154.87a1.1,1.1,0,0,1-.773-.313,1.051,1.051,0,0,1-.142-.177,1.1,1.1,0,0,1-.195-.631v-.024a1.114,1.114,0,0,1,1.11-1.116h1.677a1.119,1.119,0,0,1,1.116,1.116v.024Z" transform="translate(-144.309 -366.81)" fill="#273353"></path>
                                        <path id="Path_713" data-name="Path 713" d="M167.22,378.536l1.789,2.474H168.1l-1.429-1.972-1.045.95v1.021h-.738v-4.133h.738v2.114l.608-.555.549-.5,1.151-1.057h1.092Z" transform="translate(-150.949 -366.81)" fill="#273353"></path>
                                        <path id="Path_714" data-name="Path 714" d="M176.615,381.01v-4.133h.738v4.133Z" transform="translate(-157.948 -366.81)" fill="#273353"></path>
                                        <path id="Path_715" data-name="Path 715" d="M183.316,380.286v.738h-2.1a1.288,1.288,0,0,1-.579-.136,1.31,1.31,0,0,1-.6-.6,1.286,1.286,0,0,1-.135-.578v-2.816h.738v2.887a.589.589,0,0,0,.5.5Z" transform="translate(-159.511 -366.818)" fill="#273353"></path>
                                        <path id="Path_716" data-name="Path 716" d="M193.228,380.286v.738h-2.1a1.289,1.289,0,0,1-.579-.136,1.31,1.31,0,0,1-.6-.6,1.285,1.285,0,0,1-.135-.578v-2.816h.738v2.887a.589.589,0,0,0,.5.5Z" transform="translate(-165.426 -366.818)" fill="#273353"></path>
                                        <path id="Path_717" data-name="Path 717" d="M200.48,377.993v.384h2.657v.738H200.48v.779a.381.381,0,0,0,.378.378h3.017v.738h-3.017a1.114,1.114,0,0,1-1.11-1.116v-1.9a1.114,1.114,0,0,1,1.11-1.116h3.017v.738h-3.017A.381.381,0,0,0,200.48,377.993Z" transform="translate(-171.35 -366.81)" fill="#273353"></path>
                                        <path id="Path_718" data-name="Path 718" d="M213.507,376.883a2.061,2.061,0,0,1,1.576,3.395c-.035.042-.077.083-.118.124a2.029,2.029,0,0,1-1.452.608h-2.066v-4.133Zm-1.329,3.395h1.329a1.328,1.328,0,1,0,0-2.656h-1.329Z" transform="translate(-178.332 -366.81)" fill="#273353"></path>
                                    </g>
                                    <path id="Path_720" data-name="Path 720" d="M218.116,235.774l-4.779,5.727-28.785,34.483L183.7,277l-.043-.043a4.814,4.814,0,0,0-5.835-7.556l.079-.067,34.486-28.782Z" transform="translate(-145.919 -235.774)" fill="#273353"></path>
                                    <path id="Path_721" data-name="Path 721" d="M192.249,248.592l-6.066,5.1-5.918,4.981L160.988,274.9l-.224-.223a4.815,4.815,0,0,0-4.561-8.062l15.876-7.939Z" transform="translate(-133.016 -243.424)" fill="#273353"></path>
                                    <path id="Path_722" data-name="Path 722" d="M228.615,267.779l-9.152,18.3-7.97,15.94c0-.02,0-.041,0-.061a5.357,5.357,0,0,0-7.527-4.9l15.5-18.413,4.981-5.918Z" transform="translate(-161.521 -254.874)" fill="#273353"></path>
                                    <g id="Mask_Group_1" data-name="Mask Group 1" clip-path="url(#clip-path)">
                                        <path id="Path_719" data-name="Path 719" d="M161.622,279.282v44.892H98.7V261.251h41.387l-9.961,4.981H103.68v52.961h52.961v-29.95Z" transform="translate(-99.03 -250.653)" fill="#273353"></path>
                                    </g>
                                </g>
                            </g>
                            <text id="Ambar_Immigration" data-name="Ambar
                      Immigration" transform="translate(176.875 188.314)" fill="#273353" font-size="22" font-family="Gotham,sans-serif" font-weight="700">
                                <tspan x="0" y="0">Ambar</tspan>
                                <tspan x="0" y="20">Immigration</tspan>
                            </text>
                            <text id="EB-3_Unskilled_Experts" data-name="EB-3 Unskilled Experts" transform="translate(178.428 229.848)" font-size="10" font-family="'Gotham',sans-serif" font-weight="600" letter-spacing="0.032em">
                                <tspan x="0" y="0">EB-3 UNSKILLED EXPERTS</tspan>
                            </text>
                        </g>
                    </svg>