<svg xmlns="http://www.w3.org/2000/svg" width="48.601" height="69.43" viewBox="11.571 1.286 48.601 69.43"><g data-name="Group 403"><g data-name="Group 386"><g data-name="Group 385"><path d="M40.5 1.286H17.357a5.792 5.792 0 0 0-5.786 5.786v41.657a5.792 5.792 0 0 0 5.786 5.786h20.83v-2.314h-20.83a3.476 3.476 0 0 1-3.471-3.472V7.072A3.476 3.476 0 0 1 17.357 3.6h23.144a3.476 3.476 0 0 1 3.471 3.472v33.557h2.314V7.072A5.792 5.792 0 0 0 40.5 1.286Z" fill="#041e42" fill-rule="evenodd" data-name="Path 967"></path></g></g><g data-name="Group 388"><g data-name="Group 387"><path d="M57.385 32.108 46.033 17.921l-1.809 1.447 11.352 14.185a10.444 10.444 0 0 1 2.282 6.51V68.4h-16.93c-5.977 0-10.842-4.863-10.842-10.842v-4.2h-2.314v4.2c0 7.254 5.902 13.157 13.157 13.157h18.086c.64 0 1.157-.518 1.157-1.158V40.064a12.778 12.778 0 0 0-2.787-7.956Z" fill="#041e42" fill-rule="evenodd" data-name="Path 968"></path></g></g><g data-name="Group 390"><g data-name="Group 389"><path d="M31.239 28.575a3.02 3.02 0 0 1 2.124.951l15.551 16.525 1.686-1.587L35.047 27.94a5.322 5.322 0 0 0-3.743-1.677 5.255 5.255 0 0 0-3.818 1.449 5.342 5.342 0 0 0-.423 7.36l9.966 11.768v3.58c-.001 6.394 4.02 12.195 10.008 14.438l.813-2.168c-5.09-1.905-8.508-6.836-8.507-12.27v-4.004c0-.273-.097-.54-.274-.749L28.832 33.578c-1.024-1.22-.95-2.992.231-4.173.59-.558 1.36-.835 2.176-.83Z" fill="#041e42" fill-rule="evenodd" data-name="Path 969"></path></g></g><g data-name="Group 392"><g data-name="Group 391"><path d="M37.029 3.6h2.314v28.93H37.03V3.6z" fill="#041e42" fill-rule="evenodd" data-name="Rectangle 96"></path></g></g><g data-name="Group 394"><g data-name="Group 393"><path d="M31.243 39.472h2.315v13.886h-2.315V39.472z" fill="#041e42" fill-rule="evenodd" data-name="Rectangle 97"></path></g></g><g data-name="Group 396"><g data-name="Group 395"><path d="M31.243 2.443h2.315V27.9h-2.315V2.443z" fill="#041e42" fill-rule="evenodd" data-name="Rectangle 98"></path></g></g><g data-name="Group 398"><g data-name="Group 397"><path d="M17.357 7.072h2.315v15.043h-2.315V7.072z" fill="#041e42" fill-rule="evenodd" data-name="Rectangle 99"></path></g></g><g data-name="Group 400"><g data-name="Group 399"><path d="M23.143 7.072h2.314v9.257h-2.314V7.072z" fill="#041e42" fill-rule="evenodd" data-name="Rectangle 100"></path></g></g><g data-name="Group 402"><g data-name="Group 401"><path d="M25.457 39.472h-6.943c-.638 0-1.157.517-1.157 1.157v6.943c0 .64.519 1.157 1.157 1.157h6.943c.639 0 1.157-.517 1.157-1.157V40.63c0-.64-.518-1.157-1.157-1.157ZM24.3 46.415h-4.628v-4.629H24.3v4.63Z" fill="#041e42" fill-rule="evenodd" data-name="Path 970"></path></g></g></g></svg>