 <svg xmlns="http://www.w3.org/2000/svg" xmlns:xlink="http://www.w3.org/1999/xlink" width="72" height="72" viewBox="0 0 72 72">
                                <defs>
                                  <clipPath id="clip-path">
                                    <rect id="Rectangle_94" data-name="Rectangle 94" width="72" height="72" rx="4" fill="#fff" stroke="#000" stroke-width="1"></rect>
                                  </clipPath>
                                </defs>
                                <g id="Group_404" data-name="Group 404" transform="translate(3.375 3.375)">
                                <path id="Path_971" data-name="Path 971" d="M65.163,4.87A5.071,5.071,0,0,0,60.369.077C55.14-.209,44.908.069,35.123,5.13a49.563,49.563,0,0,0-14.473,12l-.154.187-9.554.738A5.044,5.044,0,0,0,7.1,20.317L.581,30.176a3.494,3.494,0,0,0,2.379,5.379L11.01,36.8c-.028.156-.057.313-.083.469a5.068,5.068,0,0,0,1.421,4.409L23.56,52.892a5.081,5.081,0,0,0,3.586,1.489,5,5,0,0,0,.823-.068c.156-.026.313-.055.469-.083l1.247,8.049a3.491,3.491,0,0,0,5.379,2.38l9.859-6.518A5.043,5.043,0,0,0,47.183,54.3l.738-9.554.187-.154a49.559,49.559,0,0,0,12-14.473C65.171,20.332,65.448,10.1,65.163,4.87ZM42.814,54.952l-9.431,6.235-1.215-7.845a42.818,42.818,0,0,0,11.685-5.563L43.373,54a1.245,1.245,0,0,1-.558.949ZM26.263,50.189,15.051,38.977A1.239,1.239,0,0,1,14.7,37.9a32.881,32.881,0,0,1,1.492-5.678L33.013,49.047a33.019,33.019,0,0,1-5.675,1.5,1.239,1.239,0,0,1-1.075-.353ZM11.237,21.867l6.224-.481A42.814,42.814,0,0,0,11.9,33.071L4.053,31.856l6.235-9.431A1.245,1.245,0,0,1,11.237,21.867ZM45.66,41.654a43.822,43.822,0,0,1-8.848,5.786L17.8,28.427a44.581,44.581,0,0,1,5.787-8.847A45.614,45.614,0,0,1,36.88,8.525c8.98-4.645,18.441-4.9,23.282-4.632a1.254,1.254,0,0,1,1.185,1.185c.264,4.84.013,14.3-4.632,23.282A45.614,45.614,0,0,1,45.66,41.654Z" transform="translate(0 0)" fill="#273353"></path>
                                <path id="Path_972" data-name="Path 972" d="M285.279,105.422a9.549,9.549,0,1,0-6.757-2.794A9.529,9.529,0,0,0,285.279,105.422Zm-4.055-13.606a5.733,5.733,0,1,1-1.68,4.054A5.715,5.715,0,0,1,281.225,91.816Z" transform="translate(-240.59 -75.32)" fill="#273353"></path>
                                <path id="Path_973" data-name="Path 973" d="M2.213,353.027a1.9,1.9,0,0,0,1.351-.56l6.24-6.24a1.911,1.911,0,0,0-2.7-2.7l-6.24,6.24a1.911,1.911,0,0,0,1.351,3.263Z" transform="translate(-0.263 -299.263)" fill="#273353"></path>
                                <path id="Path_974" data-name="Path 974" d="M15.261,388.405a1.911,1.911,0,0,0-2.7,0l-12,12a1.911,1.911,0,1,0,2.7,2.7l12-12A1.911,1.911,0,0,0,15.261,388.405Z" transform="translate(0 -338.426)" fill="#273353"></path>
                                <path id="Path_975" data-name="Path 975" d="M96.863,433.286l-6.24,6.24a1.911,1.911,0,1,0,2.7,2.7l6.24-6.24a1.911,1.911,0,1,0-2.7-2.7Z" transform="translate(-78.587 -377.588)" fill="#273353"></path>
                                </g>
                            </svg>